HIERARCHY
ROOT Hips
{
	OFFSET 0.000000 8.830580 0.000000
	CHANNELS 6 Xposition Yposition Zposition Zrotation Yrotation Xrotation 
	JOINT Spine
	{
		OFFSET 0.000000 0.010000 0.000000
		CHANNELS 3 Zrotation Yrotation Xrotation
		JOINT Spine1
		{
			OFFSET 0.000000 2.459130 0.000000
			CHANNELS 3 Zrotation Yrotation Xrotation
			JOINT Neck
			{
				OFFSET 0.000000 2.484630 0.000000
				CHANNELS 3 Zrotation Yrotation Xrotation
				JOINT Head_virtual
				{
					OFFSET 0.000000 0.000000 0.000000
					CHANNELS 3 Zrotation Yrotation Xrotation
					JOINT Head
					{
						OFFSET 0.000000 0.927525 0.000000
						CHANNELS 3 Zrotation Yrotation Xrotation
						End Site
						{
							OFFSET 0.000000 0.000000 0.000000
						}
					}
				}
				JOINT LeftUpArm_virtual
				{
					OFFSET 0.000000 0.000000 0.000000
					CHANNELS 3 Zrotation Yrotation Xrotation
					JOINT LeftUpArm
					{
						OFFSET 1.248820 0.000000 0.000000
						CHANNELS 3 Zrotation Yrotation Xrotation
						JOINT LeftForeArm
						{
							OFFSET 2.597580 0.000000 0.000000
							CHANNELS 3 Zrotation Yrotation Xrotation
							JOINT LeftHand
							{
								OFFSET 2.455420 0.000000 0.000000
								CHANNELS 3 Zrotation Yrotation Xrotation
								End Site
								{
									OFFSET 0.000000 0.000000 0.000000
								}
							}
						}
					}
				}
				JOINT RightUpArm_virtual
				{
					OFFSET -0.000000 -0.000000 -0.000000
					CHANNELS 3 Zrotation Yrotation Xrotation
					JOINT RightUpArm
					{
						OFFSET -1.248820 -0.000000 -0.000000
						CHANNELS 3 Zrotation Yrotation Xrotation
						JOINT RightForeArm
						{
							OFFSET -2.597580 -0.000000 -0.000000
							CHANNELS 3 Zrotation Yrotation Xrotation
							JOINT RightHand
							{
								OFFSET -2.455420 -0.000000 -0.000000
								CHANNELS 3 Zrotation Yrotation Xrotation
								End Site
								{
									OFFSET 0.000000 0.000000 0.000000
								}
							}
						}
					}
				}
			}
		}
	}
	JOINT LeftUpLeg
	{
		OFFSET 1.271939 0.000000 0.000000
		CHANNELS 3 Zrotation Yrotation Xrotation
		JOINT LeftLowLeg
		{
			OFFSET 0.000000 -4.342910 0.000000
			CHANNELS 3 Zrotation Yrotation Xrotation
			JOINT LeftFoot
			{
				OFFSET 0.000000 -4.487670 0.000000
				CHANNELS 3 Zrotation Yrotation Xrotation
				JOINT LeftToeBase
				{
					OFFSET 0.000000 0.000000 1.515070
					CHANNELS 3 Zrotation Yrotation Xrotation
					End Site
					{
						OFFSET 0.000000 0.000000 0.000000
					}
				}
			}
		}
	}
	JOINT RightUpLeg
	{
		OFFSET -1.271939 0.000000 0.000000
		CHANNELS 3 Zrotation Yrotation Xrotation
		JOINT RightLowLeg
		{
			OFFSET 0.000000 -4.342910 0.000000
			CHANNELS 3 Zrotation Yrotation Xrotation
			JOINT RightFoot
			{
				OFFSET 0.000000 -4.487670 0.000000
				CHANNELS 3 Zrotation Yrotation Xrotation
				JOINT RightToeBase
				{
					OFFSET 0.000000 0.000000 1.515070
					CHANNELS 3 Zrotation Yrotation Xrotation
					End Site
					{
						OFFSET 0.000000 0.000000 0.000000
					}
				}
			}
		}
	}
}
MOTION
Frames: 7
Frame Time: 0.041667
-16.828674 9.314889 35.486159 -172.883104 0.716854 -178.545563 5.066147 -3.634831 -21.008757 4.510075 1.178253 31.350180 0.000000 0.000000 0.000000 -2.293648 -3.361467 -14.958032 7.593733 3.685689 -77.044233 -32.962502 -0.010366 -5.897420 -35.325699 -0.130667 29.109400 0.000000 -30.924601 0.000000 10.485900 7.668820 -0.296231 26.492800 -2.602920 -2.371540 40.823399 2.702840 19.856899 0.000000 27.375999 0.000000 -6.104210 -2.212090 -7.792940 10.526655 23.795606 6.894661 0.000000 0.000000 -1.138920 -8.557073 5.118492 11.401522 0.000000 0.000000 -11.288730 7.386109 1.087098 3.945241 0.000000 0.000000 4.781860 16.997091 -28.625308 9.470745 0.000000 0.000000 -12.680110 
-16.830885 9.314560 35.483520 -172.886260 0.790801 -178.565504 5.096093 -3.602265 -21.027911 4.458815 1.163481 31.344994 0.000000 0.000000 0.000000 -2.277901 -3.346681 -14.898938 7.593206 3.700776 -77.008815 -32.926201 -0.022725 -5.916840 -35.321899 -0.088396 29.161301 0.000000 -30.998400 0.000000 10.459500 7.740180 -0.318653 26.537100 -2.637250 -2.361210 40.779701 2.708910 19.884701 0.000000 27.477100 0.000000 -6.181460 -2.163850 -7.693970 10.533693 23.858886 6.943715 0.000000 0.000000 -1.107090 -8.551993 5.122615 11.367304 0.000000 0.000000 -11.294620 7.374034 1.189753 3.946532 0.000000 0.000000 4.850560 17.018606 -28.649438 9.413912 0.000000 0.000000 -12.663600 
-16.833535 9.313531 35.480003 -172.886666 0.862462 -178.579721 5.142763 -3.560792 -21.072013 4.380478 1.134257 31.345238 0.000000 0.000000 0.000000 -2.230062 -3.344747 -14.823907 7.563514 3.712031 -76.974507 -32.885399 -0.017739 -5.909830 -35.325100 -0.072391 29.182699 0.000000 -31.027500 0.000000 10.457000 7.701590 -0.384951 26.587400 -2.664560 -2.341450 40.753399 2.702110 19.797600 0.000000 27.594000 0.000000 -6.177060 -2.140580 -7.629430 10.537924 23.883415 7.006323 0.000000 0.000000 -1.102690 -8.575254 5.145607 11.310660 0.000000 0.000000 -11.297790 7.359048 1.256021 3.982108 0.000000 0.000000 4.848850 17.055738 -28.648450 9.379610 0.000000 0.000000 -12.682510 
-16.836189 9.312699 35.476609 -172.888172 0.932908 -178.589208 5.170252 -3.565539 -21.135368 4.345178 1.098445 31.379322 0.000000 0.000000 0.000000 -2.256687 -3.321663 -14.758672 7.557794 3.733697 -76.950207 -32.888401 0.003443 -5.942400 -35.318600 -0.057277 29.196100 0.000000 -31.046700 0.000000 10.500800 7.705280 -0.379999 26.619200 -2.663840 -2.319260 40.706299 2.731250 19.762699 0.000000 27.711500 0.000000 -6.197650 -2.271570 -7.559570 10.533749 23.854481 7.079862 0.000000 0.000000 -1.135640 -8.590018 5.213555 11.265502 0.000000 0.000000 -11.282400 7.344627 1.327567 4.026312 0.000000 0.000000 4.818830 17.030464 -28.661383 9.373507 0.000000 0.000000 -12.667460 
-16.838150 9.312166 35.474791 -172.881942 1.006418 -178.579842 5.190363 -3.576836 -21.187056 4.344263 1.077211 31.392579 0.000000 0.000000 0.000000 -2.288698 -3.313555 -14.694708 7.566178 3.741682 -76.951100 -32.971199 0.014519 -5.969890 -35.201599 0.006323 29.277300 0.000000 -31.176001 0.000000 10.601500 7.801770 -0.413247 26.605400 -2.630860 -2.278400 40.705299 2.756790 19.710899 0.000000 27.716801 0.000000 -6.208000 -2.246750 -7.547510 10.535169 23.864456 7.133227 0.000000 0.000000 -1.183120 -8.609952 5.246471 11.242661 0.000000 0.000000 -11.261230 7.338320 1.383746 4.044872 0.000000 0.000000 4.783090 17.008592 -28.656797 9.379495 0.000000 0.000000 -12.628010 
-16.840428 9.311365 35.470054 -172.876687 1.046040 -178.593658 5.205917 -3.605645 -21.259018 4.346640 1.048123 31.414155 0.000000 0.000000 0.000000 -2.240125 -3.331511 -14.672725 7.567104 3.717417 -76.878009 -32.942101 0.013800 -5.983890 -35.297901 -0.013761 29.175100 0.000000 -30.992701 0.000000 10.556300 7.677160 -0.464706 26.589300 -2.627100 -2.280780 40.736198 2.742570 19.646400 0.000000 27.691799 0.000000 -6.179960 -2.230140 -7.961310 10.545443 23.821974 7.242215 0.000000 0.000000 -1.279630 -8.669961 5.284141 11.217135 0.000000 0.000000 -11.210270 7.323682 1.334366 4.136834 0.000000 0.000000 4.680640 16.991479 -28.589684 9.429403 0.000000 0.000000 -12.699860 
-16.842721 9.310550 35.466186 -172.872038 1.129004 -178.614742 5.234512 -3.564827 -21.295006 4.301827 1.042224 31.426492 0.000000 0.000000 0.000000 -2.271879 -3.294890 -14.574019 7.588926 3.769286 -76.954445 -32.912300 0.006399 -6.012860 -35.337502 0.000800 29.101700 0.000000 -30.963600 0.000000 10.516800 7.743880 -0.397175 26.623600 -2.654660 -2.307950 40.747299 2.739690 19.629200 0.000000 27.666500 0.000000 -6.143560 -2.258500 -7.953920 10.567723 23.873666 7.387255 0.000000 0.000000 -1.408390 -8.684069 5.283523 11.232230 0.000000 0.000000 -11.222700 7.313257 1.371175 4.225112 0.000000 0.000000 4.589460 16.897000 -28.580553 9.470547 0.000000 0.000000 -12.635160 
